<svg xmlns="http://www.w3.org/2000/svg" viewBox="0 0 498.54 64.11"><defs><style>.cls-1{fill:#0081cf;}</style></defs><g id="Layer_2" data-name="Layer 2"><g id="Layer_1-2" data-name="Layer 1"><path class="cls-1" d="M60,42.62A12.65,12.65,0,0,1,55,53.2a18.79,18.79,0,0,1-11.52,3.42q-6.15,0-9.94-2.24-4,2.73-13.55,2.73-9.12,0-14.58-4.21T0,41.11A13.09,13.09,0,0,1,1.51,34.7,7.81,7.81,0,0,1,6,30.94l-.08-2.4a20.7,20.7,0,0,1,7.19-16.06Q20.27,6,31.26,6q9.69,0,16.53,3.67,7.89,4.16,7.9,11.31a5.41,5.41,0,0,1-1.28,3.57,4.08,4.08,0,0,1-3.24,1.52c-2.39,0-4.05-.71-5-2.15a2.39,2.39,0,0,0,1.39-1.75q0-5.34-5.91-8.51a26.12,26.12,0,0,0-12.17-2.57,20.35,20.35,0,0,0-7.24,1.2,17.91,17.91,0,0,0-5.95,3.81q-5.41,5-5.41,13.56h2.44a20.33,20.33,0,0,1,1-6.82,12.6,12.6,0,0,1,3.36-5.07,16,16,0,0,1,11.19-3.95q8,0,12.32,3.81C44.15,20.18,45.59,24,45.59,29q6.84,0,10.61,3.63T60,42.62ZM37.61,32.77H34.28Q31,40.09,24,40.1a10.23,10.23,0,0,1-6.09-2,10,10,0,0,1-3.85-5.29,6.74,6.74,0,0,0-4.41,3.77,14.55,14.55,0,0,0-1.49,6.57A9.23,9.23,0,0,0,12,50.64a13.65,13.65,0,0,0,8.67,2.73q8,0,12.17-5.17a20.2,20.2,0,0,0,3.42-6.45A27.83,27.83,0,0,0,37.61,32.77ZM37.45,29q0-5.49-2.34-8.32a8.1,8.1,0,0,0-6.61-2.83,7.35,7.35,0,0,0-6.07,2.95,11.14,11.14,0,0,0-2.32,7.11,13.78,13.78,0,0,0,1.08,5.51c.72,1.67,1.77,2.5,3.15,2.5a2.94,2.94,0,0,0,2.43-1.38,5.25,5.25,0,0,0,1-3.13,8.79,8.79,0,0,0-.75-3.5,2.48,2.48,0,0,0-2.34-1.76,2.54,2.54,0,0,0-2.32,1.43c-.52-.16-.78-.64-.78-1.43q0-5.33,6.27-5.33A6.48,6.48,0,0,1,33,23.69a9,9,0,0,1,2,5.58Zm14,13.11A12.91,12.91,0,0,0,50,35.86q-1.59-3.26-4.11-3.25a29.56,29.56,0,0,1-2.08,11.64,19.59,19.59,0,0,1-6,7.94,5.76,5.76,0,0,0,2.64.44,10.79,10.79,0,0,0,7.86-3A10,10,0,0,0,51.45,42.13Z"/><path class="cls-1" d="M90.37,19.46l-3.09,4.15h-3.1V45.35q0,6.91-8.22,11.19l-5.58,2.24c-1.84.9-3.29,2.67-4.35,5.33l-5.25-5.82q1.09-1.83,5.55-2.83a18.07,18.07,0,0,0,6.21-2.26q3.09-2.4,3.09-8.67V23.61H69.28V51l-5.17,3.41V23.61l3.83-4.15Z"/><path class="cls-1" d="M117.93,19.46l-2.77,4h-2.89V47.87l-8.83,6.07V23.28H97.25v27.6l-5.33,3.59v-31l4-4Z"/><path class="cls-1" d="M158.76,34.36q0,8.1-4.28,12.86A12.09,12.09,0,0,1,145,51.45H119V21.62l8.83-6.35V44.86a7.44,7.44,0,0,0,.33,2.58c.21.56.91.84,2.07.84,1.85,0,2.77-1,2.77-3.09V27.36A7.42,7.42,0,0,1,136.41,21a15.33,15.33,0,0,1,8.91-2.38q7.34,0,10.91,5.58A18.81,18.81,0,0,1,158.76,34.36Zm-9.85,9.44V27.52a12.63,12.63,0,0,0-.41-4c-.27-.67-1.36-1-3.26-1q-3.42,0-3.42,4.52V44.78a5,5,0,0,0,.55,2.66c.37.56,1.33.84,2.87.84a3.51,3.51,0,0,0,3.26-1.51A7.4,7.4,0,0,0,148.91,43.8Z"/><path class="cls-1" d="M171.5,42.05a5.77,5.77,0,0,1,1.26,4.07A5.94,5.94,0,0,1,170.64,51,6.43,6.43,0,0,1,166,52.63a4.54,4.54,0,0,1-3.66-1.58,6.22,6.22,0,0,1-1.18-3.5,6.55,6.55,0,0,1,2.16-5.17,6.36,6.36,0,0,1,4.52-1.75A5,5,0,0,1,171.5,42.05Z"/><path class="cls-1" d="M218.84,26.62l-3.78,4.32H206.3V41.68a9,9,0,0,1-3.86,7.64,15.58,15.58,0,0,1-9.53,2.87,17.32,17.32,0,0,1-10.6-3.28,10.14,10.14,0,0,1-4.42-8.53A12.87,12.87,0,0,1,180.15,33a9.32,9.32,0,0,1,6.25-4.07V23.28l3.5-3.82h25.77L213.14,23H206.3v3.83ZM197.31,44.78V30.69l-2.08-.16A8.79,8.79,0,0,0,188.94,33c-1.69,1.62-2.54,4.09-2.54,7.43a10.52,10.52,0,0,0,1.67,6,5.78,5.78,0,0,0,5.17,2.5,3.77,3.77,0,0,0,2.87-1.3A4.09,4.09,0,0,0,197.31,44.78Zm.4-18V23h-6.22v3.66Z"/><path class="cls-1" d="M228.45,51.13h-5.94V17.34q0-11-6.52-11h-2.24a5.91,5.91,0,0,0-4.54,2.12,7.43,7.43,0,0,0-1.89,5.13v1.58a5,5,0,0,0,.43,2.18,5.67,5.67,0,0,0,1.61,1.89h-6.43a5.92,5.92,0,0,1-1.19-1.91l-.4-2.16V13.6A12.93,12.93,0,0,1,202.09,9a10.14,10.14,0,0,1,2.59-3.73q3.33-3.33,9.07-3.34H216a10.82,10.82,0,0,1,9.12,4.4,17.69,17.69,0,0,1,3.34,11Z"/><path class="cls-1" d="M289.47,36.6A17.09,17.09,0,0,1,286,47.38a12,12,0,0,1-9.81,4.81q-5.7,0-8.82-2.63a8.9,8.9,0,0,1-3.11-7.18V26.46a4.79,4.79,0,0,0-2.1-3.95,7.51,7.51,0,0,0-4.66-1.59q-11.24,0-11.23,16.69a22.07,22.07,0,0,0,1.16,7.49c.77,2.18,2,3.26,3.72,3.26a4.07,4.07,0,0,0,3.34-2,8.12,8.12,0,0,0,1-4.16,7.73,7.73,0,0,0-1.3-4.43,4.08,4.08,0,0,0-3.55-1.92,3.53,3.53,0,0,0-2.07.41,3.81,3.81,0,0,0-1.18,1.51l-.33-1.59a4.62,4.62,0,0,1,2-3.62,6.75,6.75,0,0,1,4.31-1.63,8.15,8.15,0,0,1,6.54,2.79,10.15,10.15,0,0,1,2.38,6.81q0,11.16-11,11.16a11.8,11.8,0,0,1-9.65-4.4,15.4,15.4,0,0,1-3.26-10q0-9.62,5.42-14.7a16.57,16.57,0,0,1,6-3.48A26,26,0,0,1,258,18q6.6,0,10.57,2.47a8.09,8.09,0,0,1,4,7.34V43.88q0,4.48,3,4.48,6.18,0,6.18-13.6a20.74,20.74,0,0,0-1.42-8.14q-1.75-4.11-4.93-4.11a5,5,0,0,0-1.34.16l-2.56-3.58,3.58-.24Q289.47,18.85,289.47,36.6Z"/><path class="cls-1" d="M333.39,34.36q0,8.1-4.27,12.86a12.13,12.13,0,0,1-9.49,4.23h-26V21.62l8.83-6.35V44.86a7.44,7.44,0,0,0,.33,2.58c.22.56.91.84,2.08.84q2.76,0,2.76-3.09V27.36A7.42,7.42,0,0,1,311,21,15.36,15.36,0,0,1,320,18.6q7.32,0,10.91,5.58A18.9,18.9,0,0,1,333.39,34.36Zm-9.85,9.44V27.52a12.63,12.63,0,0,0-.41-4c-.27-.67-1.35-1-3.25-1q-3.42,0-3.42,4.52V44.78a4.91,4.91,0,0,0,.55,2.66c.36.56,1.32.84,2.87.84a3.51,3.51,0,0,0,3.25-1.51A7.4,7.4,0,0,0,323.54,43.8Z"/><path class="cls-1" d="M318.49,5.17a5,5,0,0,1-1.42,3.66,5.64,5.64,0,0,1-3.91,1.43,4.68,4.68,0,0,1-3.72-1.45,5.61,5.61,0,0,1-1.29-3.88,4.53,4.53,0,0,1,1.55-3.59A5.37,5.37,0,0,1,313.32,0a4.79,4.79,0,0,1,3.75,1.59A5.21,5.21,0,0,1,318.49,5.17Z"/><path class="cls-1" d="M364.57,51.45h-27V22l8.92-6.75V43.72q0,4.72,4.52,4.72a5.92,5.92,0,0,0,3.54-1A3.31,3.31,0,0,0,356,44.53V21.37l8.59-6.1Z"/><path class="cls-1" d="M396.65,19.46l-3.09,4.15h-3.1V45.35q0,6.91-8.22,11.19l-5.58,2.24c-1.84.9-3.29,2.67-4.35,5.33l-5.25-5.82q1.1-1.83,5.55-2.83a18,18,0,0,0,6.21-2.26c2.06-1.6,3.1-4.49,3.1-8.67V23.61h-6.36V51l-5.16,3.41V23.61l3.82-4.15Z"/><path class="cls-1" d="M437.48,26.62l-3.79,4.32h-8.75V41.68a9.05,9.05,0,0,1-3.87,7.64,15.53,15.53,0,0,1-9.52,2.87,17.35,17.35,0,0,1-10.61-3.28,10.15,10.15,0,0,1-4.41-8.53A12.87,12.87,0,0,1,398.79,33,9.29,9.29,0,0,1,405,28.94V23.28l3.5-3.82H434.3L431.78,23h-6.84v3.83ZM416,44.78V30.69l-2.08-.16A8.79,8.79,0,0,0,407.58,33C405.88,34.57,405,37,405,40.38a10.52,10.52,0,0,0,1.67,6,5.78,5.78,0,0,0,5.16,2.5,3.75,3.75,0,0,0,2.87-1.3A4.06,4.06,0,0,0,416,44.78Zm.4-18V23h-6.23v3.66Z"/><path class="cls-1" d="M498.54,19.46l-4.76,4.23h-2.4V49.3L482.54,55V23.69H476.6q4,4.93,4,13.6,0,6.43-3.09,10.5a12.22,12.22,0,0,1-10.18,4.68,10.65,10.65,0,0,1-8.18-3.78,12.11,12.11,0,0,1-8.59,3.58,9.73,9.73,0,0,1-8.84-4.72q-2.4-3.82-2.4-10.1,0-8.75,5.13-13.88T459,18.44a59.48,59.48,0,0,1,6.6.33,20.72,20.72,0,0,1,5,1.1,2,2,0,0,1,1-.33c.45-.05,1.31-.08,2.59-.08ZM465.12,22.1a21.2,21.2,0,0,0-5.33-.73,12.62,12.62,0,0,0-10.18,4.72,16.68,16.68,0,0,0-3.34,10.42q0,12,5.25,12,3.59,0,3.59-6a10.06,10.06,0,0,0-1.2-4.89,3.68,3.68,0,0,0-3.32-2.19,4.31,4.31,0,0,0-3.38,1.75,6.05,6.05,0,0,1,2.07-4.44,7.92,7.92,0,0,1,5.17-1.91,5.94,5.94,0,0,1,4.24,1.58Q459.46,26.55,465.12,22.1Zm6.59,15.11q0-8.26-3.66-12.5-5.7,4.23-5.7,13.84a25.62,25.62,0,0,0,.53,6.15q.9,3.16,3.91,3.17Q471.71,47.87,471.71,37.21Z"/><path class="cls-1" d="M480.63,5.17a5,5,0,0,1-1.43,3.66,5.62,5.62,0,0,1-3.9,1.43,4.71,4.71,0,0,1-3.73-1.45,5.66,5.66,0,0,1-1.28-3.88,4.53,4.53,0,0,1,1.55-3.59A5.37,5.37,0,0,1,475.46,0a4.76,4.76,0,0,1,3.74,1.59A5.22,5.22,0,0,1,480.63,5.17Z"/></g></g></svg>