<svg xmlns="http://www.w3.org/2000/svg" viewBox="0 0 499.12 76.8"><defs><style>.cls-1{fill:#008f7a;}</style></defs><g id="Layer_2" data-name="Layer 2"><g id="Layer_1-2" data-name="Layer 1"><path class="cls-1" d="M31.77,15.11c-2.55,0-3.72-10.54-13-10.54-4,0-6.12,2.87-6.12,3.95,0,19.15,17,26.82,17,42.09,0,14.72-9.84,19.06-16.27,19.06C5.35,69.67,0,62.46,0,55.8,0,49,6,45.34,7.67,45.34A1.57,1.57,0,0,1,9.3,46.89c0,2.09-4.49,2.63-4.49,8.29,0,5.5,5.5,8.45,9.76,8.45A7.81,7.81,0,0,0,22.32,56c0-8.52-18.52-26.58-18.52-39.37C3.8,8.14,9.84,0,19,0c9.45,0,15,9.61,15,13.1A2.33,2.33,0,0,1,31.77,15.11Z"/><path class="cls-1" d="M54.4,47.43c-2,1.94-10.93,11.39-14.88,11.39-2.87,0-5.58-2.17-5.58-7.13,0-4.42,3.26-15.89,8.37-15.89a2.72,2.72,0,0,1,2.79,3c0,2.32-4.26,12.09-4.26,14.72,0,.47.15.7.39.7,4.1,0,11.47-8.06,11.62-8.29.31-.31,1.09-1.4,1.94-1.4a1,1,0,0,1,1,1C55.8,46.34,54.79,47,54.4,47.43Zm-7.75-25A2.25,2.25,0,0,1,49,24.8c0,2.56-1.86,5.81-4.58,5.81a2.86,2.86,0,0,1-2.94-2.87C41.46,25.34,44.64,22.4,46.65,22.4Z"/><path class="cls-1" d="M82.92,46.42c-5.12,6.2-14.34,21.24-22.4,21.24-4.34,0-8.68-3.41-8.68-12.79,0-21.39,12.09-47.28,20.38-47.28,3,0,4.42,3.34,4.42,7,0,6.43-5.73,18.91-14.18,27.67-.47,2.94-.85,5.89-1.09,8.83v1.4c0,1.55.31,7.44,1.32,7.44,4.88,0,15.66-9.77,18.14-14.5a1.37,1.37,0,0,1,1.47-1,1,1,0,0,1,1,1.08A1.44,1.44,0,0,1,82.92,46.42ZM64.55,33.09a12.94,12.94,0,0,1,1.32-1.39c4-4.89,7-13.41,7-17.28,0-1.94-.23-2.8-.62-2.8C70.75,11.62,66.57,25.42,64.55,33.09Z"/><path class="cls-1" d="M96.94,67.19c-4,0-7.28-2.71-7.28-9.76a13.94,13.94,0,0,1,.08-1.79c-1.94,2.48-4,5.51-7.29,5.51S77.34,57,77.34,53.63c0-7.67,5.27-15.81,12.55-15.81a15.18,15.18,0,0,1,4.81,1.24c1.08-1.86,2.71-3.49,4.88-3.49,1.24,0,2.56,1.16,2.56,3.18,0,3-3.49,14.41-3.49,19.14,0,1.32.23,2.17.93,2.17,5,0,14.72-16.43,17.13-16.43a1.6,1.6,0,0,1,1.7,1.63C118.41,47.43,104.62,67.19,96.94,67.19Zm-3.87-25c-.7-1.55-.93-2.56-3.57-2.56-5.27,0-6.74,9.22-6.74,14.42,0,1.62.23,2.86,1,2.86C87.64,56.88,93.07,42.31,93.07,42.16Z"/><path class="cls-1" d="M153,56.11c-5.27,0-6.2-5.43-6.2-9.07a23.27,23.27,0,0,1,.23-3.18c-6.89,2.87-13.56,16.9-16.81,16.9A2.21,2.21,0,0,1,128,58.59c0-3,5.73-19.92,6-21.86-9.37,10-12.47,22-16.19,24.42a4.23,4.23,0,0,1-2.72,1.08c-1.86,0-3.17-1.08-3.17-3.56,0-8.3,5.11-29,10.46-29a2.56,2.56,0,0,1,2.56,2.64,9.86,9.86,0,0,1-.7,2.94A109.93,109.93,0,0,0,121,49.6c1.79-1.78,13-18.06,16-18.06a2.19,2.19,0,0,1,2.24,2.25s-.46,0-4.57,17.67c.16-.16,10.93-12,14.11-12,1.47,0,2.94,1.08,2.94,4.1s-.85,5.74-.85,7.44c0,1.32.54,2.1,2.32,2.1,4.81,0,11.24-7.37,11.55-7.68.7-.77,1.47-1.86,2.79-1.86a1.79,1.79,0,0,1,1.78,1.71C169.32,48.2,156.23,56.11,153,56.11Z"/><path class="cls-1" d="M209.62,45.65c0,3-5.58,2.32-16.66,8.13C191.33,60.29,186.14,72,179.24,72a5.16,5.16,0,0,1-5.19-4.65V67c0-3.18,5-11.4,16-17a7.41,7.41,0,0,1,.23-1.08,34.88,34.88,0,0,0,.54-5c0-.39-.07-.7-.07-1-.31-2.86-1.48-3.41-2.56-3.41-9.22,0-16.9,21.86-17,22a4.44,4.44,0,0,1-3.65,1.94,3.65,3.65,0,0,1-3.41-3.1c-.07-.77-.15-1.78-.15-2.79,0-14.41,8.29-48.82,19.45-48.82a4.07,4.07,0,0,1,3.72,3.33c.08,1,.16,1.94.16,2.87,0,9.14-5,15.5-12.87,21.08-.31,1.39-.23,1-.39,1.62-.85,4.73-1.55,9.38-2,14,3-6,9.84-15.58,16.74-15.58,3.41,0,5.19,2.87,5.58,6.28a14.47,14.47,0,0,1,.08,1.86,20,20,0,0,1-.31,3.8c5.81-2.64,12.32-4.73,13.17-4.73a2.32,2.32,0,0,1,2.25,2ZM175.75,30.77c7.21-7.13,10.08-15.19,10.08-17v-.16c-.08-.93-.55-1.47-1.24-1.47C180.32,12.09,176.84,26.81,175.75,30.77Zm11.86,26c-2.87,1.78-9,5.42-9,9.14v.31c.08.54.39.85.85.85C182.42,67.11,186.37,59.36,187.61,56.81Z"/><path class="cls-1" d="M224.18,67.19c-4,0-7.28-2.71-7.28-9.76a15.91,15.91,0,0,1,.07-1.79c-1.93,2.48-3.95,5.51-7.28,5.51s-5.12-4.19-5.12-7.52c0-7.67,5.27-15.81,12.56-15.81a15,15,0,0,1,4.8,1.24c1.09-1.86,2.72-3.49,4.89-3.49,1.24,0,2.55,1.16,2.55,3.18,0,3-3.48,14.41-3.48,19.14,0,1.32.23,2.17.93,2.17,5,0,14.72-16.43,17.12-16.43a1.61,1.61,0,0,1,1.71,1.63C245.65,47.43,231.85,67.19,224.18,67.19Zm-3.87-25c-.7-1.55-.93-2.56-3.57-2.56C211.47,39.6,210,48.82,210,54c0,1.62.23,2.86,1,2.86C214.88,56.88,220.31,42.31,220.31,42.16Z"/><path class="cls-1" d="M251.77,71.45c-2.79,0-5-1.93-5-6,0-3.26,1.24-8.14,5-14.11-7-3.48-5.27-2.55-7.44-3.25a4.17,4.17,0,0,1-3.8-4.34c0-1.71,3.56-13.41,9.53-13.41a4.35,4.35,0,0,1,4.26,4.26c0,1.71-3.56,9.61-4.18,10.54,5.89,2.95,7.36,2.64,7.36,4.5,0,1.24-2.63,7.44-4.18,12a17.66,17.66,0,0,0-.78,3.8c0,.39.08.7.31.7,2.71,0,18.6-22.48,21.47-22.48a1.71,1.71,0,0,1,1.78,1.78C276.1,48.28,258.12,71.45,251.77,71.45Z"/><path class="cls-1" d="M289.35,67.19c-4,0-7.28-2.71-7.28-9.76a15.91,15.91,0,0,1,.07-1.79c-1.93,2.48-3.95,5.51-7.28,5.51s-5.12-4.19-5.12-7.52c0-7.67,5.27-15.81,12.56-15.81a15,15,0,0,1,4.8,1.24c1.09-1.86,2.72-3.49,4.89-3.49,1.24,0,2.55,1.16,2.55,3.18,0,3-3.48,14.41-3.48,19.14,0,1.32.23,2.17.93,2.17,5,0,14.72-16.43,17.12-16.43a1.61,1.61,0,0,1,1.71,1.63C310.82,47.43,297,67.19,289.35,67.19Zm-3.87-25c-.7-1.55-.94-2.56-3.57-2.56-5.27,0-6.74,9.22-6.74,14.42,0,1.62.23,2.86,1,2.86C280.05,56.88,285.48,42.31,285.48,42.16Z"/><path class="cls-1" d="M338.09,46.34s-3.1,2.56-3.95,3.1a75.46,75.46,0,0,0-12.79,8.84A13.28,13.28,0,0,1,322.83,64a10.54,10.54,0,0,1-3.49,7.75c-1.71,2-5,5-7.6,5a5.77,5.77,0,0,1-5.58-6.12c0-6.28,4.42-9.15,8.37-12.48-1.86-2.56-4.1-5-5.73-7.67-.23-.31-.39-.62-.62-.93a14.31,14.31,0,0,1-2.09-7.29c0-6.27,5-13.25,12.47-13.25,4.5,0,10.23,3,10.23,6.82a7.37,7.37,0,0,1-.07,1.24,3.68,3.68,0,0,1-3.49,3c-4.11,0-2.17-5-8.53-5-2.17.39-3.41,1.16-4.41,3.95a7.08,7.08,0,0,0-.47,2.56,15.12,15.12,0,0,0,.23,2.32,13.13,13.13,0,0,0,1.17,3c2.79,4.34,3.72,4.88,6,8,1.09-.7,2.64-1.63,4.5-2.71,0-.16,9.84-6.51,13.41-7.52a.8.8,0,0,1,.38-.08.94.94,0,0,1,1,1A1.68,1.68,0,0,1,338.09,46.34ZM308.18,49.6l.15.15-.15-.23Zm9.22,16.12a12.29,12.29,0,0,0-.23-2.4c-.08-.31-.08-.31-.31-1l-.23.23c-.55.54-1.24,1.55-1.48,1.78a1.38,1.38,0,0,1-.23.39c-1.63,2.71-2.63,3.88-2.63,5.27,0,.7.38,1,.85,1C315.46,71,317.09,70,317.4,65.72ZM313.29,47a.23.23,0,0,0-.07-.15C313.22,47,313.29,47,313.29,47Z"/><path class="cls-1" d="M351.65,67.19c-3.95,0-7.28-2.71-7.28-9.76a15.91,15.91,0,0,1,.07-1.79c-1.93,2.48-3.95,5.51-7.28,5.51S332,57,332,53.63c0-7.67,5.27-15.81,12.56-15.81a15,15,0,0,1,4.8,1.24c1.09-1.86,2.72-3.49,4.89-3.49,1.24,0,2.55,1.16,2.55,3.18,0,3-3.48,14.41-3.48,19.14,0,1.32.23,2.17.93,2.17,5,0,14.72-16.43,17.12-16.43a1.61,1.61,0,0,1,1.71,1.63C373.12,47.43,359.32,67.19,351.65,67.19Zm-3.87-25c-.7-1.55-.93-2.56-3.57-2.56-5.27,0-6.74,9.22-6.74,14.42,0,1.62.23,2.86,1,2.86C342.35,56.88,347.78,42.31,347.78,42.16Z"/><path class="cls-1" d="M404.58,54.79c-1.94,1.47-6.66,5-9.07,5-3,0-5.11-2.79-5.11-5.58v-.54a41.2,41.2,0,0,0,.23-5c0-2.48-.16-4-.16-4-11.93,6.82-13.87,20-21.08,20a4.28,4.28,0,0,1-4.49-4.41c0-3.57,6.12-22.94,8.68-27.67,1.09-2,3.33-4,5.58-4a4.09,4.09,0,0,1,4.18,4.42c0,2.55-1.16,3.72-4.8,15.11-.54,1.7-1,3.41-1.47,5.11C385.36,44.72,387,39.29,392,39.29c2.63,0,4,2.17,4,4.81,0,1.16-.86,3.25-.86,7.2V54c0,1.62,0,1.78.31,1.78,2.17,0,7.75-5.27,9.3-6.74l.24-.24c4.41-4.49,3.64-5.42,5.73-5.42a1.79,1.79,0,0,1,1.86,1.86C412.56,47.74,406.52,53.16,404.58,54.79Z"/><path class="cls-1" d="M478,59.29c-7.67,0-17.51-3.49-22.93-9.61v.46c-.55,10.93,1.08,19.76-6.28,19.76-3.64,0-4.5-2.63-4.5-6.2,0-.15.24-7.82.55-14.26C444.41,29,436,25.11,436,17.9c0-10.31,17-16.43,32-16.43,9.77,0,17.91,4.11,17.91,13.8,0,12.63-14.49,25-27.28,31.07,6.51,3.34,11.86,8,20.54,8,10.23,0,18.05-10.16,18.05-10.16a1.68,1.68,0,0,1,1.86,1.48C499.12,51,490.52,59.29,478,59.29ZM446,34c.77-6.82,1.93-25.11,8.75-25.11,1.86,0,3.41,2.71,3.41,4.5,0,8.21-1.24,10.38-2.71,29.68,11-4.42,25.81-14.49,25.81-25.65,0-9.92-7.68-13.1-17.36-13.1-8.84,0-24.57,4.11-24.57,12.86C439.37,20.77,441.08,24.18,446,34Z"/></g></g></svg>