<svg xmlns="http://www.w3.org/2000/svg" viewBox="0 0 569.61 97.34"><defs><style>.cls-1{fill:#f6cf53;}</style></defs><g id="Layer_2" data-name="Layer 2"><g id="Layer_1-2" data-name="Layer 1"><path class="cls-1" d="M562.71,46.54h6.9c-4.62-1.68-8.92-.37-13-.53-2.22-.75-4.09-1.85-7.4-1.5h0a23.93,23.93,0,0,0-5.67-.1c-.45-.44-1.16-.88-1.53-1.32a7.51,7.51,0,0,0-1.49-.9l-4.13-1.42,2.1-.94a12.68,12.68,0,0,0,4.52-1h0c1.49-.49,3-1,2.84-2l0-.21v-.2c2.21-.13,4.6-.13,5.12-1.46-.26-.48-.53-.95-.8-1.43h0c1.67.1,3.3.44,4.36-.65a28.5,28.5,0,0,1,3.93-2.77l4.25-1.42c-.1-1.35,1.07-2.45,3.2-3.36,1.22-.09,2.85.28,3.56-.36.56-.5-.73-.5-1.45-.59L562.74,24V22.53l1-1c0-.16,0-.32,0-.48,1.19-.19,2.24.65,3.55.14a4.61,4.61,0,0,0-2.51-1.1,6.66,6.66,0,0,0-3.14-1.45c.65-1-3.09-1.29-2.13-2.39,1.5.16,2,1.08,4.07,1.07-.51-.8-1.64-1.22-3-1.55a3.61,3.61,0,0,0-2.78-1l.65,1h-4.22l-3.16-1c0-.18-.37-.28-.51-.43l2.78-.47c2.44-.22-.11-1.05.86-1.46h0a9.29,9.29,0,0,0,4.31-1.36c2-.25,4.34.29,6.69-.78l-6.84.21-.59-.93c1-.6,3.27-.53,3.63-1.45a6.15,6.15,0,0,0-.75-.07c-2.72-.86-5.74-.32-8.63-.38h-9.54l-6.38-.58a1.59,1.59,0,0,0-.9-.07h0c-1-.62-5.13-.13-3.19-1.82-4.59-1.85-10.25-2.2-16-2.36l-3.91-.11c-5.07-.25-9.79-1.69-15.15-.9-2.46-.13-4.7-1-7.38-.45-1.52-.08-3.15-.41-4.28.39a4.66,4.66,0,0,0-1,.08A14.82,14.82,0,0,0,478,1.44l-2,0c-4.5-.79-9.37-.29-13.93-.85a31.48,31.48,0,0,0-6.29,0l-7.47,0h-1c-2.37.08-4.74.23-7.11.22C433.08.69,426,.48,419,.47h-1.14c-2.19,0-4.37-.06-6.56,0-.21.18.06.31.22.45h-.22V.51c-.47,0-.94,0-1.41,0A14.73,14.73,0,0,0,405,0H378.56q-.75.21,0,.42L405,.5l.08,0C392.69.36,380.29.3,367.88.56c-.18.17.12.27.25.4h-.28v.49h-.12c.2-.16.4-.31.12-.49l0-.4h-3.21c-4.76.12-9.6-.36-14.29.36h.06a0,0,0,0,1,0,0A1.57,1.57,0,0,0,350,.82a6.65,6.65,0,0,0-.78.09,24.45,24.45,0,0,0-6.28,0c-11.22.11-22.47-.25-33.64.46h0l-10.18,0a17.58,17.58,0,0,0-2.05,0l3.28-.61c-1.65-.2-3.24-.51-4.44.18l-6.3,0c-1.25,0-2.53,0-3.29.55,0,0,0,0-.05,0-4.86.13-9.8-.45-14.61.29-.18,0-.31,0-.49,0L239.86,2h-2.25L209,2l-17.82.43h-11.7l-11.68,0h-5.22l-6.35,0H154l-9.21-.13h0A74.12,74.12,0,0,0,133.88,2l-8.15-.14A34.57,34.57,0,0,0,118,1.51l-3-.09c-4.87-.72-9.9-.37-14.86-.5C97.15.12,93.85.67,90.76.4h0c-1.63-.49-3.07-.73-3.49.5-1.9,1.16-1.6,2.75-3.87,3.87s-2.21,2.29-.7,3.54q0,.21.42.33L86.21,11c-3.54-.17-5.58.91-7.72,1.91a3,3,0,0,0-1.94,1h0a2.74,2.74,0,0,0-1.91.54c-1.74.29-4.35-.51-5.27.82-.11,0-.2,0-.3,0l-4.88,0a17.18,17.18,0,0,0-5.53-.62,13.61,13.61,0,0,0,5.4,1.2l1.85.56-.84,3.79a7.51,7.51,0,0,0,.68.39c-.07,0-.16,0-.23.05h0l-1.33,0-3.12.06h0l-4.28.45h0c-4.46.55-9.25.74-12.74,2.37-3.14.29-4.87,1.58-8,2.11,2.07.54,3.3-.28,4.81-.2l1.19.54h0l-2.28,1.33c-3,.32-4.58,1.45-6.44,2.41-1.17.36-2.05.78-1.85,1.49.64,1.83-4.42,2.45-4.66,4.38l3.45-1a1.84,1.84,0,0,0,.06.47l-2.2,1.43c1.1.91.46,1.66-1.07,2.32L24,39.85a3.78,3.78,0,0,0-2.18.41c-4.68,1.27-4.63,1.49.71,3h0l.21.71a55.77,55.77,0,0,0-11.23,1.67c-2,.43-1.13.78.53.91-.71,1.26-3.42,1.3-5.36,1.8-1.17.45-2.33.91-3.76,1.45L7.94,50c.77.57.5.86-1,.85H0c4.62,1.69,8.91.38,13,.53h0c2.22.76,4.09,1.86,7.4,1.5a23.41,23.41,0,0,0,5.67.11c.45.43,1.16.88,1.54,1.31a6.73,6.73,0,0,0,1.48.91l4.13,1.42-2.1.94a12.47,12.47,0,0,0-4.52,1h0c-1.48.49-3,1-2.83,2l0,.21v.2c-2.21.13-4.6.13-5.12,1.46l.8,1.42h0c-1.67-.09-3.3-.43-4.36.66a29,29,0,0,1-3.92,2.77h0L6.9,68.57h0C7,69.92,5.83,71,3.7,71.93c-1.22.09-2.84-.28-3.56.36-.56.5.73.5,1.45.59l5.28.48V74.8l-1,1v.48c-1.2.19-2.25-.65-3.56-.14a4.65,4.65,0,0,0,2.51,1.1,6.76,6.76,0,0,0,3.14,1.45C7.26,79.69,11,79.94,10,81,8.54,80.88,8.07,80,6,80c.51.8,1.64,1.22,3,1.55a3.61,3.61,0,0,0,2.78,1l-.65-1h4.22l3.16,1h0c0,.18.37.28.5.44l-2.77.46c-2.45.22.11,1.05-.86,1.46h0a9.29,9.29,0,0,0-4.31,1.35c-2,.26-4.34-.28-6.69.79l6.84-.21c.2.31.39.62.59.92l1.4.51h0c.08-.48-.28-.71-1.4-.51-1,.6-3.27.54-3.63,1.46a6.17,6.17,0,0,0,.74.07c2.73.86,5.75.32,8.64.38l9.54,0,6.38.59a1.58,1.58,0,0,0,.9.07h0c1,.61,5.13.13,3.19,1.82,4.59,1.84,10.25,2.2,16,2.36l3.91.11h0c5.07.25,9.79,1.69,15.15.9,2.46.13,4.7,1,7.38.45,1.52.07,3.15.41,4.28-.39a4.66,4.66,0,0,0,1-.08,14.71,14.71,0,0,0,6.33.49l2,0c4.5.79,9.37.29,13.93.85a31.48,31.48,0,0,0,6.29,0l7.47,0h1c2.37-.08,4.74-.23,7.11-.22,7.07,0,14.13.22,21.2.23h1.14c2.19,0,4.37.06,6.56,0,.21-.18-.06-.31-.22-.45h.22v.45c.47,0,.94,0,1.41,0a14.7,14.7,0,0,0,4.82.49h26.46q.73-.21,0-.42l-26.46,0h-.08c12.41.15,24.81.21,37.22,0,.18-.17-.12-.27-.25-.4h.28v-.49h.12c-.2.16-.4.31-.12.49l0,.4h3.21c4.76-.12,9.6.35,14.29-.37h0a1,1,0,0,0,.35.1c.26,0,.51-.06.77-.09a24.45,24.45,0,0,0,6.28,0c11.22-.11,22.47.25,33.64-.47l10.18,0a17.7,17.7,0,0,0,2.06,0l-3.29.62c1.65.2,3.24.51,4.44-.18l6.3,0c.36-.14.33-.29,0-.43h0a3.1,3.1,0,0,1,0,.43c1.25,0,2.53,0,3.3-.55h0c5-.13,10.16.54,15.11-.32l31.35-.16H332l28.66,0,17.82-.43h28.6l6.35,0h2.22l9.21.13a.75.75,0,0,0,.15,0,75,75,0,0,0,10.72.34l8.15.15a34.57,34.57,0,0,0,7.77.34l3,.09c4.87.72,9.9.37,14.86.5,2.95.8,6.26.24,9.34.52,1.62.49,3.07.73,3.49-.5,1.9-1.16,1.6-2.76,3.86-3.87s2.22-2.29.71-3.54c0-.15-.16-.25-.42-.33l-3.09-2.39a14.46,14.46,0,0,0,7.72-1.9,3,3,0,0,0,1.94-1h0a2.85,2.85,0,0,0,1.91-.53c1.74-.3,4.35.5,5.28-.83a2.91,2.91,0,0,1,.3,0l4.87,0a17.18,17.18,0,0,0,5.53.62,13.8,13.8,0,0,0-5.4-1.21L503.71,81l.84-3.79c-.16-.16-.5-.24-.68-.39.07,0,.16,0,.23,0h0c.44,0,.89,0,1.33,0l3.12,0,4.28-.45c4.46-.55,9.26-.74,12.74-2.37,3.14-.29,4.87-1.58,8-2.12-2.07-.53-3.3.29-4.81.21l-1.19-.54,2.28-1.33c3-.32,4.58-1.46,6.44-2.41h0c1.17-.35,2.05-.78,1.85-1.48-.64-1.82,4.42-2.45,4.66-4.38l-3.45,1h0a2,2,0,0,0-.06-.48l2.19-1.42c-1.09-.91-.45-1.66,1.08-2.32l3.1-1.09a3.76,3.76,0,0,0,2.17-.42h0c4.68-1.26,4.63-1.48-.71-3l-.21-.71h0a56,56,0,0,0,11.24-1.67c2-.43,1.11-.78-.54-.91.71-1.26,3.42-1.3,5.36-1.8l3.76-1.46-5.06-.15C560.91,46.82,561.17,46.53,562.71,46.54ZM359.23,94.06s-.06,0-.09-.08c.12,0,.25,0,.36,0C359.42,94,359.31,94,359.23,94.06Zm-346-5.38h-.52c.17,0,.36.07.52,0ZM210.38,3.28a.73.73,0,0,0,.09.08c-.12,0-.25,0-.36,0C210.19,3.31,210.3,3.32,210.38,3.28ZM480.8,81.68h-.07s.15,0,.12-.06C480.65,81.41,480.83,81.56,480.8,81.68ZM458.93,93.07l0,0h.1ZM88.81,15.66h.07s-.16,0-.12.06C89,15.93,88.78,15.78,88.81,15.66ZM110.68,4.27l0,0h-.1ZM55.11,92.05ZM514.49,5.29ZM357.73,43.51a0,0,0,0,1,0,0h0ZM211.88,53.83l0,0-.09,0ZM118.31,12.56c-.27-.05-.51-.11-.76-.18C117.81,12.44,118,12.52,118.31,12.56Zm333,72.21.77.19C451.79,84.9,451.57,84.82,451.29,84.77ZM161.41,8.65h.81a2.87,2.87,0,0,0-.31,0C161.76,8.66,161.56,8.71,161.41,8.65Zm5.77-.42h-.1s.19,0,.13-.08C166.91,7.86,167.83,8.18,167.18,8.23Zm-24.81.4h-.07s0,0,0-.05S142.35,8.6,142.37,8.63Zm-18.59-.19c-.07,0-.08.09-.18.06s-.24,0-.35-.08Zm-9-.23a.25.25,0,0,0,0-.07l.13,0Zm-76,36.87,0,0a2.86,2.86,0,0,0-.42,0l.17,0ZM408.21,88.69h-.82c.1,0,.21,0,.31,0A4.63,4.63,0,0,1,408.21,88.69Zm-5.78.42s.07,0,.1,0-.19,0-.13.08C402.7,89.48,401.78,89.16,402.43,89.11Zm24.81-.4h.07s0,0,0,.05S427.26,88.73,427.24,88.71Zm18.59.19c.07,0,.07-.09.18-.06s.23,0,.34.08Zm9,.23a.25.25,0,0,0,0,.07l-.13,0Zm76-36.87,0,0a1.46,1.46,0,0,0,.42,0l-.18,0ZM537.56,24c-.1,0-.13-.05-.23,0s.08,0,.11,0l.16.06ZM112.73,14.87h0l0,0ZM45.09,39.32h-.25a2.94,2.94,0,0,1,.26-.17C45.15,39.22,45,39.24,45.09,39.32Zm-12.7,4.79.1,0-.07,0Zm-.33,29.22c.1,0,.12,0,.22,0s-.08,0-.11,0a.76.76,0,0,0-.16-.06Zm424.82,9.14ZM524.51,58h.26a2.94,2.94,0,0,1-.26.17C524.46,58.12,524.6,58.1,524.51,58Zm12.71-4.79-.1,0,.07,0ZM138.15,6.41V6.24h.58A2.46,2.46,0,0,0,138.15,6.41ZM112.74,15.3v0h-.06ZM431.47,90.93c0,.06,0,.11,0,.17-.19,0-.39,0-.58,0A2.7,2.7,0,0,0,431.47,90.93Zm25.4-8.88V82h.06ZM525,37.87a2.47,2.47,0,0,1-.38,0c0-.06.15-.07.2-.13A.81.81,0,0,0,525,37.87Zm17.51-27.33s0,0-.06,0,.06,0,.08,0ZM474.82,4.71a2.81,2.81,0,0,0-1.5.06l0,0,1.26-.11A2,2,0,0,1,474.82,4.71ZM452.05,3.08h0a2.71,2.71,0,0,0,1.05.34A3.52,3.52,0,0,1,452.05,3.08Zm-.58.75h0ZM124.6,4.4h0s-.08,0,.1,0ZM112.71,6.09a.7.7,0,0,0,0,.14,1,1,0,0,0-.17,0A1.79,1.79,0,0,0,112.71,6.09ZM44.61,59.47a2.47,2.47,0,0,1,.38,0c0,.06-.16.07-.2.13A.81.81,0,0,0,44.61,59.47ZM27.08,86.81h0s0,0,.06,0-.06,0-.07,0Zm67.71,5.82a2.81,2.81,0,0,0,1.5-.06l0,0-1.26.12A1.6,1.6,0,0,1,94.79,92.63Zm22.77,1.62v0a2.71,2.71,0,0,0-1-.34A3.49,3.49,0,0,1,117.56,94.25Zm.57-.74h0Zm310.16-1.45h0Zm16.72.88h0s.08,0-.1,0Zm11.89-1.69a.7.7,0,0,0,0-.14,1,1,0,0,0,.17,0A1.79,1.79,0,0,0,456.9,91.25Zm69.48-49-.1-.06h.5C526.66,42.25,526.51,42.23,526.38,42.26Zm3.51-6.76v0c.06,0,.11,0,.16,0A.88.88,0,0,1,529.89,35.5ZM401.72,2.88l.18-.07c.12,0,.29,0,.41.07ZM205.21,4.33c0,.07.14.07.16.13-.15-.06-.39-.06-.53-.13Zm-63.89,1h0ZM85,19.18H83.9A4.2,4.2,0,0,0,85,19.18Zm-42.2,36c.13,0,.28,0,.41-.06l.1.07h-.51Zm-3.1,6.71h0s-.11,0-.16,0ZM167.89,94.46l-.18.07c-.11,0-.28,0-.4-.07ZM425,93.93l.1,0a.16.16,0,0,1-.07,0S425,94,425,93.93ZM544.77,33.11l0,0s.06,0,.09,0a.34.34,0,0,0,.06.06S544.81,33.1,544.77,33.11ZM315.58,2.33h0Zm-171,1.08-.1,0h.07S144.58,3.39,144.58,3.41Zm-10.44-1c-.07,0-.16,0-.22-.06h.38A.59.59,0,0,0,134.14,2.46ZM35.59,40.28h0l-.06,0S35.58,40.29,35.59,40.28Zm-10.75,24h0l0,0s-.06,0-.09,0l-.06-.06ZM254,95h-.12v0H254ZM364.4,93c0-.07-.14-.07-.17-.13.17.06.41.06.55.13C364.65,93,364.53,93,364.4,93Zm71.07,1.87c.07,0,.16,0,.22.06h-.38A.76.76,0,0,0,435.47,94.88ZM534,57.07v0l.06,0S534,57.05,534,57.07Zm22-11c-.1.1,0,.19.06.29l-.09,0h0l-.19-.26H556ZM549.92,8.61h-.23l0,0C549.77,8.61,549.86,8.58,549.92,8.61ZM284.4,2.76c0,.05,0,.06,0,.12h-.17Zm-10.72.12h-.05c0-.17,0-.34,0-.51h-.31s0,0,0-.07l.34.07C273.32,2.55,273.5,2.72,273.68,2.88Zm-18.19-.41-.11-.05h.23Zm-52.12.43L203.1,3c-.1-.05-.22,0-.31-.05ZM200.15,3c0-.07.17-.07.16-.16a2.62,2.62,0,0,0,.28,0C200.52,3,200.25,3,200.15,3Zm-88.3-1.42h-.3A2.83,2.83,0,0,1,111.85,1.62ZM13.61,51.3c.1-.1,0-.19-.06-.29l.09,0h0l.2.27h-.25Zm6.08,37.43h.23l0,0C19.84,88.73,19.75,88.76,19.69,88.73Zm265.52,5.85s.05-.07,0-.12.11,0,.17,0ZM296,95c.27-.19.09-.35-.09-.51h0c0,.17,0,.34,0,.51h.31s0,0,0,.07Zm18.1-.1.11,0a1.76,1.76,0,0,1-.23,0Zm52.7-.43h-.58a2.14,2.14,0,0,0,.27-.06c.1.05.22,0,.31.06l2.2,0c.07-.12.34-.08.44-.16,0,.07-.17.07-.16.15H369A3,3,0,0,0,366.82,94.44Zm90.94,1.28h.29C458,95.69,457.83,95.74,457.76,95.72Z"/><path class="cls-1" d="M548.07,62.13c-2.68.66-5.23,1.35-6.2,2.54Z"/><path class="cls-1" d="M557.34,40.15a2.56,2.56,0,0,0,.59-.57c.22-.36-.24-.64-1-.53a2.38,2.38,0,0,0-1.25.63C555.41,39.93,555.88,40.08,557.34,40.15Z"/><path class="cls-1" d="M218.84,97.31c2.23-.06,3.67.24,5.77-.4C222.48,96.93,221.05,96.67,218.84,97.31Z"/><path class="cls-1" d="M191.05,97.31H203.7c0-.15,0-.29,0-.44H191.05v.42Z"/><path class="cls-1" d="M561.56,8.16h-.08s0,0,0,0h.09Z"/><path class="cls-1" d="M563.45,7.35c-1.42-.13-1.69.34-1.89.81.93-.08,2.09.15,2.69-.36C564.34,7.72,563.79,7.38,563.45,7.35Z"/><path class="cls-1" d="M21.54,35.21c2.68-.66,5.22-1.35,6.2-2.54Z"/><path class="cls-1" d="M12.27,57.19a2.79,2.79,0,0,0-.59.57c-.22.36.24.64,1,.52A2.38,2.38,0,0,0,14,57.66C14.2,57.41,13.73,57.25,12.27,57.19Z"/><path class="cls-1" d="M372.16.46h6.4V0H365.91c0,.15,0,.29,0,.44Z"/><path class="cls-1" d="M350.78,0c-2.24.06-3.68-.24-5.78.4C347.13.4,348.56.67,350.78,0Z"/><path class="cls-1" d="M8.05,89.17s.06,0,.08,0h0l-.09,0Z"/><path class="cls-1" d="M6.16,90c1.42.13,1.69-.34,1.89-.82-.94.08-2.09-.14-2.69.37C5.28,89.61,5.82,90,6.16,90Z"/></g></g></svg>